<svg width="139" height="18" viewBox="0 0 139 18" fill="none" xmlns="http://www.w3.org/2000/svg">
<path d="M26.48 14V13.824C26.5867 13.6 26.8427 13.216 27.248 12.672C27.664 12.1173 28.2347 11.4667 28.96 10.72C29.344 10.3147 29.7227 9.94667 30.096 9.616C30.48 9.28533 30.8213 8.97067 31.12 8.672C31.4293 8.36267 31.6747 8.05867 31.856 7.76C32.048 7.46133 32.144 7.14667 32.144 6.816C32.144 6.41067 32.0213 6.096 31.776 5.872C31.5307 5.63733 31.1253 5.52 30.56 5.52C30.048 5.52 29.568 5.6 29.12 5.76C28.672 5.92 28.272 6.11733 27.92 6.352C27.5787 6.576 27.312 6.79467 27.12 7.008V6.688L26.8 5.2C27.024 4.98667 27.456 4.77333 28.096 4.56C28.736 4.34667 29.5467 4.24 30.528 4.24C31.392 4.24 32.0693 4.352 32.56 4.576C33.0613 4.8 33.4133 5.09333 33.616 5.456C33.8293 5.808 33.936 6.18133 33.936 6.576C33.936 7.14133 33.8027 7.65867 33.536 8.128C33.2693 8.58667 32.912 9.03467 32.464 9.472C32.0267 9.89867 31.5413 10.3467 31.008 10.816C30.4533 11.296 29.9733 11.696 29.568 12.016C29.1627 12.3253 28.8693 12.5387 28.688 12.656V12.704H32.176C32.816 12.704 33.3387 12.6507 33.744 12.544C34.16 12.4373 34.4373 12.3307 34.576 12.224L34.256 13.504V14H26.48ZM39.9425 14.16C38.5238 14.16 37.4625 13.7387 36.7585 12.896C36.0545 12.0427 35.7025 10.7947 35.7025 9.152C35.7025 7.552 36.0598 6.336 36.7745 5.504C37.4892 4.66133 38.5452 4.24 39.9425 4.24H40.1185C41.4945 4.24 42.5292 4.656 43.2225 5.488C43.9265 6.32 44.2785 7.54133 44.2785 9.152C44.2785 10.7947 43.9265 12.0427 43.2225 12.896C42.5292 13.7387 41.4945 14.16 40.1185 14.16H39.9425ZM39.9425 12.864H40.1185C40.6198 12.864 41.0465 12.7627 41.3985 12.56C41.7505 12.3467 42.0172 11.9733 42.1985 11.44C42.3905 10.896 42.4865 10.1333 42.4865 9.152C42.4865 8.192 42.3905 7.45067 42.1985 6.928C42.0172 6.39467 41.7505 6.02667 41.3985 5.824C41.0465 5.62133 40.6198 5.52 40.1185 5.52H39.9425C39.4305 5.52 38.9932 5.62133 38.6305 5.824C38.2678 6.02667 37.9852 6.38933 37.7825 6.912C37.5905 7.43467 37.4945 8.18133 37.4945 9.152C37.4945 10.144 37.5905 10.912 37.7825 11.456C37.9852 11.9893 38.2678 12.3573 38.6305 12.56C39.0038 12.7627 39.4412 12.864 39.9425 12.864ZM45.4019 14V13.824C45.5085 13.6 45.7645 13.216 46.1699 12.672C46.5859 12.1173 47.1565 11.4667 47.8819 10.72C48.2659 10.3147 48.6445 9.94667 49.0179 9.616C49.4019 9.28533 49.7432 8.97067 50.0419 8.672C50.3512 8.36267 50.5965 8.05867 50.7779 7.76C50.9699 7.46133 51.0659 7.14667 51.0659 6.816C51.0659 6.41067 50.9432 6.096 50.6979 5.872C50.4525 5.63733 50.0472 5.52 49.4819 5.52C48.9699 5.52 48.4899 5.6 48.0419 5.76C47.5939 5.92 47.1939 6.11733 46.8419 6.352C46.5005 6.576 46.2339 6.79467 46.0419 7.008V6.688L45.7219 5.2C45.9459 4.98667 46.3779 4.77333 47.0179 4.56C47.6579 4.34667 48.4685 4.24 49.4499 4.24C50.3139 4.24 50.9912 4.352 51.4819 4.576C51.9832 4.8 52.3352 5.09333 52.5379 5.456C52.7512 5.808 52.8579 6.18133 52.8579 6.576C52.8579 7.14133 52.7245 7.65867 52.4579 8.128C52.1912 8.58667 51.8339 9.03467 51.3859 9.472C50.9485 9.89867 50.4632 10.3467 49.9299 10.816C49.3752 11.296 48.8952 11.696 48.4899 12.016C48.0845 12.3253 47.7912 12.5387 47.6099 12.656V12.704H51.0979C51.7379 12.704 52.2605 12.6507 52.6659 12.544C53.0819 12.4373 53.3592 12.3307 53.4979 12.224L53.1779 13.504V14H45.4019ZM54.4644 14V13.824C54.571 13.6 54.827 13.216 55.2324 12.672C55.6484 12.1173 56.219 11.4667 56.9444 10.72C57.3284 10.3147 57.707 9.94667 58.0804 9.616C58.4644 9.28533 58.8057 8.97067 59.1044 8.672C59.4137 8.36267 59.659 8.05867 59.8404 7.76C60.0324 7.46133 60.1284 7.14667 60.1284 6.816C60.1284 6.41067 60.0057 6.096 59.7604 5.872C59.515 5.63733 59.1097 5.52 58.5444 5.52C58.0324 5.52 57.5524 5.6 57.1044 5.76C56.6564 5.92 56.2564 6.11733 55.9044 6.352C55.563 6.576 55.2964 6.79467 55.1044 7.008V6.688L54.7844 5.2C55.0084 4.98667 55.4404 4.77333 56.0804 4.56C56.7204 4.34667 57.531 4.24 58.5124 4.24C59.3764 4.24 60.0537 4.352 60.5444 4.576C61.0457 4.8 61.3977 5.09333 61.6004 5.456C61.8137 5.808 61.9204 6.18133 61.9204 6.576C61.9204 7.14133 61.787 7.65867 61.5204 8.128C61.2537 8.58667 60.8964 9.03467 60.4484 9.472C60.011 9.89867 59.5257 10.3467 58.9924 10.816C58.4377 11.296 57.9577 11.696 57.5524 12.016C57.147 12.3253 56.8537 12.5387 56.6724 12.656V12.704H60.1604C60.8004 12.704 61.323 12.6507 61.7284 12.544C62.1444 12.4373 62.4217 12.3307 62.5604 12.224L62.2404 13.504V14H54.4644ZM67.8506 14C67.9253 14 68 13.9253 68.0746 13.776C68.1493 13.6267 68.1866 13.3813 68.1866 13.04V5.36C68.1866 5.01867 68.1493 4.77867 68.0746 4.64C68 4.49067 67.9253 4.41067 67.8506 4.4H70.8106C70.7893 4.4 70.8 4.47467 70.8426 4.624C70.8853 4.77333 70.9866 5.02933 71.1466 5.392C71.2106 5.53067 71.3226 5.776 71.4826 6.128C71.6533 6.48 71.856 6.90133 72.0906 7.392C72.3253 7.872 72.576 8.38933 72.8426 8.944C73.1093 9.49867 73.3813 10.064 73.6586 10.64C73.936 11.2053 74.1973 11.7387 74.4426 12.24H74.4586C74.7146 11.728 74.9813 11.1893 75.2586 10.624C75.536 10.048 75.8133 9.47733 76.0906 8.912C76.368 8.34667 76.624 7.824 76.8586 7.344C77.0933 6.85333 77.2906 6.43733 77.4506 6.096C77.6213 5.744 77.7386 5.49867 77.8026 5.36C77.952 5.01867 78.048 4.77333 78.0906 4.624C78.144 4.47467 78.16 4.4 78.1386 4.4H81.0826C81.008 4.4 80.9333 4.47467 80.8586 4.624C80.784 4.77333 80.7466 5.024 80.7466 5.376V13.04C80.7466 13.3813 80.784 13.6267 80.8586 13.776C80.9333 13.9253 81.008 14 81.0826 14H78.6346C78.7093 14 78.7786 13.9253 78.8426 13.776C78.9173 13.6267 78.9546 13.3813 78.9546 13.04V6.416H78.9226C78.6986 6.864 78.4586 7.344 78.2026 7.856C77.9573 8.368 77.7066 8.88533 77.4506 9.408C77.1946 9.92 76.9546 10.416 76.7306 10.896C76.5066 11.3653 76.304 11.7867 76.1226 12.16C75.952 12.5333 75.8186 12.8267 75.7226 13.04C75.5733 13.3707 75.4933 13.6107 75.4826 13.76C75.4826 13.9093 75.5093 13.9893 75.5626 14H73.3226C73.376 14 73.4026 13.9307 73.4026 13.792C73.4026 13.6427 73.3226 13.392 73.1626 13.04C73.088 12.8587 72.9653 12.592 72.7946 12.24C72.624 11.888 72.4266 11.4773 72.2026 11.008C71.9893 10.528 71.7546 10.0267 71.4986 9.504C71.2426 8.97067 70.9866 8.43733 70.7306 7.904C70.4853 7.37067 70.2506 6.87467 70.0266 6.416H69.9786V13.04C69.9786 13.3813 70.016 13.6267 70.0906 13.776C70.1653 13.9253 70.24 14 70.3146 14H67.8506ZM86.7989 14.16C85.9562 14.16 85.2629 14.064 84.7189 13.872C84.1749 13.6693 83.7482 13.392 83.4389 13.04C83.1295 12.688 82.9109 12.2773 82.7829 11.808C82.6655 11.3387 82.6069 10.8267 82.6069 10.272C82.6069 9.06667 82.9482 8.112 83.6309 7.408C84.3242 6.704 85.3482 6.352 86.7029 6.352C87.4922 6.352 88.1269 6.45867 88.6069 6.672C89.0975 6.88533 89.4655 7.168 89.7109 7.52C89.9669 7.872 90.1375 8.256 90.2229 8.672C90.3189 9.07733 90.3669 9.47733 90.3669 9.872V10.624C90.3669 10.592 90.2175 10.56 89.9189 10.528C89.6309 10.4853 89.1402 10.464 88.4469 10.464H84.2389C84.2389 11.2533 84.4735 11.8773 84.9429 12.336C85.4122 12.7947 86.1109 13.024 87.0389 13.024C87.8389 13.024 88.4949 12.928 89.0069 12.736C89.5295 12.5333 89.8762 12.336 90.0469 12.144V12.464L90.2069 13.52C89.9722 13.6587 89.5562 13.8027 88.9589 13.952C88.3722 14.0907 87.6522 14.16 86.7989 14.16ZM84.8789 9.408H88.7669C88.7669 9.13067 88.7082 8.84267 88.5909 8.544C88.4735 8.24533 88.2655 7.99467 87.9669 7.792C87.6682 7.57867 87.2469 7.472 86.7029 7.472C86.2442 7.472 85.8442 7.552 85.5029 7.712C85.1615 7.86133 84.8949 8.05867 84.7029 8.304C84.5215 8.54933 84.4309 8.81067 84.4309 9.088C84.4309 9.19467 84.4629 9.27467 84.5269 9.328C84.5909 9.38133 84.7082 9.408 84.8789 9.408ZM94.856 14.16C94.12 14.16 93.5867 14.0053 93.256 13.696C92.9253 13.376 92.76 12.8587 92.76 12.144V7.632H91.32V6.512C91.8107 6.512 92.1947 6.45333 92.472 6.336C92.7493 6.208 92.9467 5.98933 93.064 5.68C93.1813 5.37067 93.24 4.93867 93.24 4.384H94.392V6.512H97.448C97.3733 6.61867 97.2987 6.77867 97.224 6.992C97.16 7.19467 97.128 7.408 97.128 7.632H94.392V11.904C94.392 12.3947 94.4827 12.704 94.664 12.832C94.8453 12.96 95.0747 13.024 95.352 13.024C95.6187 13.024 95.864 12.9707 96.088 12.864C96.3227 12.7467 96.5253 12.608 96.696 12.448C96.8773 12.288 97.016 12.1333 97.112 11.984V12.48L97.272 13.392C97.1653 13.4987 97 13.616 96.776 13.744C96.552 13.8613 96.28 13.9573 95.96 14.032C95.64 14.1173 95.272 14.16 94.856 14.16ZM101.401 14.16C100.239 14.16 99.4227 13.952 98.9534 13.536C98.484 13.1093 98.2494 12.5387 98.2494 11.824C98.2494 11.3227 98.372 10.896 98.6174 10.544C98.8734 10.1813 99.252 9.904 99.7534 9.712C100.265 9.52 100.911 9.424 101.689 9.424C102.244 9.424 102.724 9.46667 103.129 9.552C103.545 9.62667 103.881 9.71733 104.137 9.824C104.404 9.93067 104.591 10.0213 104.697 10.096C104.697 9.46667 104.617 8.96 104.457 8.576C104.308 8.192 104.063 7.91467 103.721 7.744C103.38 7.56267 102.916 7.472 102.329 7.472C101.7 7.472 101.135 7.54667 100.633 7.696C100.143 7.83467 99.748 7.98933 99.4494 8.16C99.1507 8.32 98.964 8.43733 98.8894 8.512V8.192L98.7294 6.992C98.8254 6.94933 99.0334 6.88 99.3534 6.784C99.6734 6.67733 100.095 6.58133 100.617 6.496C101.14 6.4 101.753 6.352 102.457 6.352C103.353 6.352 104.084 6.48 104.649 6.736C105.225 6.98133 105.647 7.36533 105.913 7.888C106.191 8.4 106.329 9.05067 106.329 9.84V13.04C106.329 13.3387 106.361 13.5573 106.425 13.696C106.5 13.824 106.575 13.9253 106.649 14H104.697V13.52L104.729 13.216L104.697 13.2C104.527 13.36 104.324 13.4987 104.089 13.616C103.855 13.7333 103.599 13.8347 103.321 13.92C103.044 13.9947 102.74 14.0533 102.409 14.096C102.089 14.1387 101.753 14.16 101.401 14.16ZM101.929 13.024C102.505 13.024 103.001 12.9653 103.417 12.848C103.833 12.7307 104.148 12.576 104.361 12.384C104.585 12.1813 104.697 11.952 104.697 11.696C104.697 11.376 104.484 11.104 104.057 10.88C103.641 10.656 102.991 10.544 102.105 10.544C101.284 10.544 100.703 10.6507 100.361 10.864C100.031 11.0773 99.8654 11.3973 99.8654 11.824C99.8654 12.24 100.025 12.544 100.345 12.736C100.676 12.928 101.204 13.024 101.929 13.024ZM112.481 14.16C111.894 14.16 111.398 14.0907 110.993 13.952C110.598 13.8133 110.262 13.6213 109.985 13.376L109.953 13.392L109.985 13.696V14H108.033C108.108 14 108.177 13.9253 108.241 13.776C108.316 13.6267 108.353 13.3813 108.353 13.04V3.92C108.353 3.57867 108.316 3.33867 108.241 3.2C108.177 3.05067 108.108 2.97067 108.033 2.96H109.985V6.832L109.953 7.136L109.985 7.168C110.124 7.02933 110.31 6.90133 110.545 6.784C110.79 6.656 111.078 6.55467 111.409 6.48C111.74 6.39467 112.097 6.352 112.481 6.352C113.473 6.352 114.257 6.528 114.833 6.88C115.409 7.22133 115.82 7.68533 116.065 8.272C116.321 8.85867 116.449 9.52533 116.449 10.272C116.449 11.008 116.326 11.6693 116.081 12.256C115.836 12.8427 115.425 13.3067 114.849 13.648C114.273 13.9893 113.484 14.16 112.481 14.16ZM112.321 13.024C112.982 13.024 113.494 12.9173 113.857 12.704C114.22 12.4907 114.47 12.1813 114.609 11.776C114.748 11.36 114.817 10.8587 114.817 10.272C114.817 9.68533 114.742 9.184 114.593 8.768C114.454 8.352 114.204 8.032 113.841 7.808C113.489 7.584 112.982 7.472 112.321 7.472C111.681 7.472 111.19 7.6 110.849 7.856C110.518 8.10133 110.289 8.43733 110.161 8.864C110.044 9.29067 109.985 9.76 109.985 10.272C109.985 11.1147 110.15 11.7867 110.481 12.288C110.812 12.7787 111.425 13.024 112.321 13.024ZM117.752 14C117.826 14 117.896 13.9253 117.96 13.776C118.034 13.6267 118.072 13.3813 118.072 13.04V7.632C118.072 7.29067 118.034 7.05067 117.96 6.912C117.896 6.76267 117.826 6.68267 117.752 6.672C118.221 6.672 118.626 6.64 118.968 6.576C119.32 6.50133 119.565 6.42667 119.704 6.352V7.328L119.672 7.536L119.704 7.568C119.864 7.36533 120.066 7.17333 120.312 6.992C120.568 6.81067 120.882 6.66133 121.256 6.544C121.629 6.416 122.066 6.352 122.568 6.352C123.56 6.352 124.317 6.63467 124.84 7.2C125.373 7.76533 125.64 8.65067 125.64 9.856V13.04C125.64 13.3813 125.672 13.6267 125.736 13.776C125.81 13.9253 125.885 14 125.96 14H123.688C123.762 14 123.832 13.9253 123.896 13.776C123.97 13.6267 124.008 13.3813 124.008 13.04V9.904C124.008 9.27467 123.928 8.784 123.768 8.432C123.608 8.08 123.384 7.83467 123.096 7.696C122.818 7.54667 122.493 7.472 122.12 7.472C121.725 7.472 121.341 7.55733 120.968 7.728C120.594 7.89867 120.29 8.17067 120.056 8.544C119.821 8.91733 119.704 9.41867 119.704 10.048V13.04C119.704 13.3813 119.736 13.6267 119.8 13.776C119.874 13.9253 119.949 14 120.024 14H117.752ZM131.778 14.16C131.191 14.16 130.695 14.0907 130.29 13.952C129.895 13.8133 129.559 13.6213 129.282 13.376L129.25 13.392L129.282 13.696V14H127.33C127.404 14 127.474 13.9253 127.538 13.776C127.612 13.6267 127.65 13.3813 127.65 13.04V3.92C127.65 3.57867 127.612 3.33867 127.538 3.2C127.474 3.05067 127.404 2.97067 127.33 2.96H129.282V6.832L129.25 7.136L129.282 7.168C129.42 7.02933 129.607 6.90133 129.842 6.784C130.087 6.656 130.375 6.55467 130.706 6.48C131.036 6.39467 131.394 6.352 131.778 6.352C132.77 6.352 133.554 6.528 134.13 6.88C134.706 7.22133 135.116 7.68533 135.362 8.272C135.618 8.85867 135.746 9.52533 135.746 10.272C135.746 11.008 135.623 11.6693 135.378 12.256C135.132 12.8427 134.722 13.3067 134.146 13.648C133.57 13.9893 132.78 14.16 131.778 14.16ZM131.618 13.024C132.279 13.024 132.791 12.9173 133.154 12.704C133.516 12.4907 133.767 12.1813 133.906 11.776C134.044 11.36 134.114 10.8587 134.114 10.272C134.114 9.68533 134.039 9.184 133.89 8.768C133.751 8.352 133.5 8.032 133.138 7.808C132.786 7.584 132.279 7.472 131.618 7.472C130.978 7.472 130.487 7.6 130.146 7.856C129.815 8.10133 129.586 8.43733 129.458 8.864C129.34 9.29067 129.282 9.76 129.282 10.272C129.282 11.1147 129.447 11.7867 129.778 12.288C130.108 12.7787 130.722 13.024 131.618 13.024Z" fill="#F7F7F7"/>
<path d="M9 1.5C13.14 1.5 16.5 4.86 16.5 9C16.5 13.14 13.14 16.5 9 16.5C4.86 16.5 1.5 13.14 1.5 9C1.5 4.86 4.86 1.5 9 1.5ZM9 3C5.685 3 3 5.685 3 9C3 12.315 5.685 15 9 15C12.315 15 15 12.315 15 9C15 5.685 12.315 3 9 3ZM9 5.25C10.365 5.25 11.5597 5.97975 12.216 7.071L10.9305 7.84275C10.7282 7.50543 10.441 7.22704 10.0975 7.03533C9.7541 6.84363 9.36639 6.74531 8.97309 6.75017C8.57979 6.75504 8.19463 6.86292 7.85603 7.06307C7.51742 7.26321 7.2372 7.54862 7.0433 7.89084C6.84941 8.23306 6.74861 8.62013 6.75096 9.01346C6.75331 9.40678 6.85873 9.79262 7.05671 10.1325C7.25469 10.4724 7.5383 10.7544 7.87928 10.9505C8.22025 11.1466 8.60667 11.2498 9 11.25C9.3886 11.2503 9.77063 11.1498 10.1088 10.9584C10.447 10.767 10.7299 10.4913 10.9298 10.158L12.216 10.929C11.7945 11.633 11.1537 12.1792 10.3919 12.484C9.63015 12.7888 8.78941 12.8353 7.99867 12.6163C7.20793 12.3973 6.51086 11.925 6.01435 11.2718C5.51785 10.6186 5.24934 9.8205 5.25 9C5.25 6.93 6.93 5.25 9 5.25Z" fill="#F7F7F7"/>
</svg>
